<svg width="74" height="24" viewBox="0 0 74 24" fill="none" xmlns="http://www.w3.org/2000/svg">
<g filter="url(#filter0_i_1310_2212)">
<rect x="1.5" width="72" height="24" rx="8" fill="#110F0F" fill-opacity="0.05"/>
<rect x="2" y="0.5" width="71" height="23" rx="7.5" stroke="#110F0F" stroke-opacity="0.05"/>
<g opacity="0.2">
<path d="M9.01512 10.5499L8.44312 12.3759H10.3461L9.76311 10.5499C9.64931 10.1752 9.54594 9.7974 9.45312 9.41694C9.43193 9.33257 9.4106 9.24824 9.38912 9.16394H9.36711L9.25312 9.62894C9.17912 9.93894 9.10312 10.2609 9.01512 10.5499ZM15.2971 10.9459C14.4611 10.9459 14.1091 11.7049 14.0541 12.2549H16.4081C16.4181 11.7599 16.1981 10.9459 15.2971 10.9459Z" fill="black"/>
<path fill-rule="evenodd" clip-rule="evenodd" d="M6.77007 3.08194C10.2461 2.69664 13.754 2.69664 17.2301 3.08194C19.1291 3.29394 20.6601 4.78894 20.8831 6.69494C21.2953 10.2196 21.2953 13.7803 20.8831 17.3049C20.6601 19.2109 19.1291 20.7059 17.2311 20.9189C13.7547 21.3043 10.2464 21.3043 6.77007 20.9189C4.87107 20.7059 3.34007 19.2109 3.11707 17.3059C2.70479 13.781 2.70479 10.2199 3.11707 6.69494C3.34007 4.78894 4.87107 3.29394 6.77007 3.08194ZM11.2481 15.4999L10.5781 13.3989H8.22207L7.58507 15.4999H6.18807L8.56407 8.08594H10.2911L12.7011 15.4999H11.2481ZM17.6841 12.6289C17.6841 12.8819 17.6621 13.0799 17.6401 13.2009H14.0541C14.0871 14.1689 14.8461 14.5869 15.7041 14.5869C16.3311 14.5869 16.7821 14.4989 17.1891 14.3449L17.3871 15.2799C16.9251 15.4669 16.2871 15.6209 15.5171 15.6209C13.7791 15.6209 12.7561 14.5429 12.7561 12.9039C12.7561 11.4189 13.6581 10.0219 15.3741 10.0219C17.1231 10.0219 17.6841 11.4519 17.6841 12.6289Z" fill="black"/>
</g>
<path d="M14.7715 14.5H13.7871L16.2524 8.53223H17.2544L19.7197 14.5H18.7354L18.2607 13.2563H15.2461L14.7715 14.5ZM15.5229 12.4873H17.9839L16.7534 9.56494L15.5229 12.4873ZM20.6426 11.0195H19.8472V10.2812H20.6558V9.82422C20.6558 8.84863 21.2622 8.22461 22.2905 8.22461C22.6641 8.22461 22.9146 8.33887 22.9893 8.37842L22.897 9.09912C22.7783 9.04639 22.5498 8.98926 22.3301 8.98926C21.7632 8.98926 21.4995 9.26172 21.4995 9.87256V10.2812H22.7432V11.0195H21.5127V14.5H20.6426V11.0195ZM23.7979 11.0195H23.0464V10.2812H23.811V8.92773H24.6592V10.2812H25.9995V11.0195H24.668V13.1289C24.668 13.5771 24.9272 13.8013 25.3579 13.8013C25.5601 13.8013 25.8369 13.7441 26.0435 13.6562L26.1577 14.4033C25.9468 14.5132 25.5732 14.5879 25.2349 14.5879C24.3516 14.5879 23.7979 14.0913 23.7979 13.2344V11.0195ZM26.5664 12.395C26.5664 11.1382 27.4673 10.1934 28.7461 10.1934C29.9766 10.1934 30.7764 11.1074 30.7764 12.2368C30.7764 12.3687 30.7676 12.5049 30.7412 12.6411H27.4673C27.5068 13.2739 28.0474 13.7705 28.7769 13.7705C29.3042 13.7705 29.7261 13.5464 30.0425 13.0498L30.6841 13.5156C30.293 14.2188 29.5239 14.5879 28.7769 14.5879C27.5024 14.5879 26.5664 13.6475 26.5664 12.395ZM27.4893 11.9907H29.8931C29.8403 11.3975 29.3438 10.98 28.7373 10.98C28.0913 10.98 27.5991 11.3975 27.4893 11.9907ZM32.688 14.5H31.8135V10.2812H32.688V10.8569C32.9253 10.3955 33.3252 10.1934 33.7866 10.1934C34.1162 10.1934 34.3667 10.2988 34.3667 10.2988L34.2744 11.0986C34.2261 11.0811 34.0371 11.002 33.7603 11.002C33.2944 11.002 32.688 11.248 32.688 12.2017V14.5ZM37.166 14.5V8.53223H41.3496V9.37158H38.0889V11.0151H40.8882V11.8545H38.0889V13.6606H41.4419V14.5H37.166ZM42.0132 11.0195V10.2812H42.8218V9.82422C42.8218 8.84863 43.4282 8.22461 44.4565 8.22461C44.8301 8.22461 45.0806 8.33887 45.1553 8.37842L45.063 9.09912C44.9443 9.04639 44.7158 8.98926 44.4961 8.98926C43.9292 8.98926 43.6655 9.26172 43.6655 9.87256V10.2812H45.832V9.82422C45.832 8.84863 46.4385 8.22461 47.4668 8.22461C47.8403 8.22461 48.0908 8.33887 48.1655 8.37842L48.0732 9.09912C47.9546 9.04639 47.7261 8.98926 47.5063 8.98926C46.9395 8.98926 46.6758 9.26172 46.6758 9.87256V10.2812H47.9194V11.0195H46.689V14.5H45.8188V11.0195H43.6787V14.5H42.8086V11.0195H42.0132ZM48.416 12.395C48.416 11.1382 49.3169 10.1934 50.5957 10.1934C51.8262 10.1934 52.626 11.1074 52.626 12.2368C52.626 12.3687 52.6172 12.5049 52.5908 12.6411H49.3169C49.3564 13.2739 49.897 13.7705 50.6265 13.7705C51.1538 13.7705 51.5757 13.5464 51.8921 13.0498L52.5337 13.5156C52.1426 14.2188 51.3735 14.5879 50.6265 14.5879C49.3521 14.5879 48.416 13.6475 48.416 12.395ZM49.3389 11.9907H51.7427C51.6899 11.3975 51.1934 10.98 50.5869 10.98C49.9409 10.98 49.4487 11.3975 49.3389 11.9907ZM55.5879 14.5879C54.3091 14.5879 53.3511 13.6167 53.3511 12.3862C53.3511 11.1514 54.3486 10.1934 55.623 10.1934C56.4536 10.1934 57.1479 10.6284 57.5435 11.3491L56.8711 11.8062C56.6074 11.3184 56.1328 11.0107 55.6055 11.0107C54.7925 11.0107 54.23 11.6128 54.23 12.3862C54.23 13.1641 54.8057 13.7705 55.5879 13.7705C56.1372 13.7705 56.5942 13.4805 56.8843 12.9795L57.5391 13.4409C57.1523 14.1353 56.4404 14.5879 55.5879 14.5879ZM58.7432 11.0195H57.9917V10.2812H58.7563V8.92773H59.6045V10.2812H60.9448V11.0195H59.6133V13.1289C59.6133 13.5771 59.8726 13.8013 60.3032 13.8013C60.5054 13.8013 60.7822 13.7441 60.9888 13.6562L61.103 14.4033C60.8921 14.5132 60.5186 14.5879 60.1802 14.5879C59.2969 14.5879 58.7432 14.0913 58.7432 13.2344V11.0195Z" fill="#110F0F"/>
</g>
<defs>
<filter id="filter0_i_1310_2212" x="0" y="0" width="73.5" height="28" filterUnits="userSpaceOnUse" color-interpolation-filters="sRGB">
<feFlood flood-opacity="0" result="BackgroundImageFix"/>
<feBlend mode="normal" in="SourceGraphic" in2="BackgroundImageFix" result="shape"/>
<feColorMatrix in="SourceAlpha" type="matrix" values="0 0 0 0 0 0 0 0 0 0 0 0 0 0 0 0 0 0 127 0" result="hardAlpha"/>
<feOffset dy="4"/>
<feGaussianBlur stdDeviation="3.85"/>
<feComposite in2="hardAlpha" operator="arithmetic" k2="-1" k3="1"/>
<feColorMatrix type="matrix" values="0 0 0 0 1 0 0 0 0 1 0 0 0 0 1 0 0 0 0.56 0"/>
<feBlend mode="normal" in2="shape" result="effect1_innerShadow_1310_2212"/>
</filter>
</defs>
</svg>
