<svg width="62" height="24" viewBox="0 0 62 24" fill="none" xmlns="http://www.w3.org/2000/svg">
<g filter="url(#filter0_i_1310_2174)">
<g clip-path="url(#clip0_1310_2174)">
<rect width="62" height="24" rx="8" fill="#E3E3E3"/>
<g opacity="0.2">
<circle cx="7.5" cy="6.5" r="2.5" fill="#F24E1E"/>
<path d="M7.5 9C6.11929 9 5 7.88071 5 6.5C5 5.11929 6.11929 4 7.5 4C8.88071 4 10 5.11929 10 6.5C10 7.88071 8.88071 9 7.5 9Z" fill="#F24E1E"/>
<circle cx="7.5" cy="11.5" r="2.5" fill="#A259FF"/>
<path d="M7.5 14C6.11929 14 5 12.8807 5 11.5C5 10.1193 6.11929 9 7.5 9C8.88071 9 10 10.1193 10 11.5C10 12.8807 8.88071 14 7.5 14Z" fill="#A259FF"/>
<circle cx="10" cy="9" r="2.5" fill="#1ABCFE"/>
<path d="M10 11.5C8.61929 11.5 7.5 10.3807 7.5 9C7.5 7.61929 8.61929 6.5 10 6.5C11.3807 6.5 12.5 7.61929 12.5 9C12.5 10.3807 11.3807 11.5 10 11.5Z" fill="#1ABCFE"/>
<circle cx="5" cy="9" r="2.5" fill="#0ACF83"/>
<path d="M5 11.5C3.61929 11.5 2.5 10.3807 2.5 9C2.5 7.61929 3.61929 6.5 5 6.5C6.38071 6.5 7.5 7.61929 7.5 9C7.5 10.3807 6.38071 11.5 5 11.5Z" fill="#0ACF83"/>
</g>
<path d="M20.5039 14.5H19.5811V8.53223H20.5039L24.1382 13.0806V8.53223H25.061V14.5H24.1294L20.5039 9.99561V14.5ZM26.4453 8.86621C26.4453 8.5498 26.665 8.33008 26.9814 8.33008C27.2979 8.33008 27.5219 8.5498 27.5219 8.86621C27.5219 9.18262 27.2979 9.40234 26.9814 9.40234C26.665 9.40234 26.4453 9.18262 26.4453 8.86621ZM27.4165 14.5H26.5464V10.2812H27.4165V14.5ZM29.7539 14.5879C28.585 14.5879 27.7002 13.6787 27.7002 12.3906C27.7002 11.1025 28.585 10.1934 29.7539 10.1934C30.4561 10.1934 30.9902 10.4834 31.2979 10.8569V8.53223H32.168V14.5H31.2979V13.9243C30.9902 14.2979 30.4561 14.5879 29.7539 14.5879ZM29.8594 10.9756C29.0464 10.9756 28.5703 11.5908 28.5703 12.3687C28.5703 13.1465 29.0464 13.8057 29.8594 13.8057C30.6724 13.8057 31.2524 13.1465 31.2524 12.3687C31.2524 11.5908 30.6724 10.9756 29.8594 10.9756ZM33.5918 13.3003C33.5918 12.5093 34.3477 11.9644 35.4551 11.9644C35.9604 11.9644 36.3252 12.0698 36.5186 12.1621V11.9336C36.5186 11.4062 36.0923 11.0107 35.4375 11.0107C34.9146 11.0107 34.4795 11.3096 34.229 11.5952L33.6797 11.0503C34.0049 10.6372 34.6816 10.1934 35.4507 10.1934C36.6372 10.1934 37.3887 10.835 37.3887 11.8589V14.5H36.5361V13.9551C36.2769 14.3506 35.7891 14.5879 35.2222 14.5879C34.3081 14.5879 33.5918 14.1265 33.5918 13.3003ZM34.4707 13.2695C34.4707 13.6519 34.853 13.876 35.3496 13.876C36.0352 13.876 36.4619 13.4341 36.4619 12.8989V12.6079C36.2769 12.4839 35.9365 12.3945 35.5293 12.3945C34.9263 12.3945 34.4707 12.7188 34.4707 13.2695ZM38.4688 11.0195H37.7173V10.2812H38.482V8.92773H39.3301V10.2812H40.6704V11.0195H39.3389V13.1289C39.3389 13.5771 39.5981 13.8013 40.0288 13.8013C40.231 13.8013 40.5078 13.7441 40.7144 13.6562L40.8286 14.4033C40.6177 14.5132 40.2441 14.5879 39.9058 14.5879C39.0225 14.5879 38.4688 14.0913 38.4688 13.2344V11.0195ZM42.7168 14.5879C41.4336 14.5879 40.4756 13.6255 40.4756 12.3906C40.4756 11.1558 41.4336 10.1934 42.7168 10.1934C44 10.1934 44.958 11.1558 44.958 12.3906C44.958 13.6255 44 14.5879 42.7168 14.5879ZM41.3457 12.3906C41.3457 13.1685 41.9214 13.7705 42.7168 13.7705C43.5122 13.7705 44.0879 13.1685 44.0879 12.3906C44.0879 11.6128 43.5122 11.0107 42.7168 11.0107C41.9214 11.0107 41.3457 11.6128 41.3457 12.3906ZM47.3984 14.5H46.5283V10.2812H47.4028V10.813C47.5389 10.5977 47.9389 10.1934 48.6816 10.1934C49.4067 10.1934 49.9165 10.4922 50.1846 10.98C50.4395 10.5669 50.9668 10.1934 51.6919 10.1934C52.8169 10.1934 53.4233 10.9141 53.4233 11.938V14.5H52.5488V12.1226C52.5488 11.4238 52.1753 11.0195 51.5557 11.0195C50.9404 11.0195 50.4351 11.4062 50.4131 12.0698V14.5H49.5386V12.1226C49.5386 11.4238 49.165 11.0195 48.5454 11.0195C47.917 11.0195 47.4028 11.4238 47.4028 12.1226V14.5H47.3984Z" fill="#110F0F"/>
</g>
<rect x="0.5" y="0.5" width="61" height="23" rx="7.5" stroke="#110F0F" stroke-opacity="0.05"/>
</g>
<defs>
<filter id="filter0_i_1310_2174" x="0" y="0" width="62" height="28" filterUnits="userSpaceOnUse" color-interpolation-filters="sRGB">
<feFlood flood-opacity="0" result="BackgroundImageFix"/>
<feBlend mode="normal" in="SourceGraphic" in2="BackgroundImageFix" result="shape"/>
<feColorMatrix in="SourceAlpha" type="matrix" values="0 0 0 0 0 0 0 0 0 0 0 0 0 0 0 0 0 0 127 0" result="hardAlpha"/>
<feOffset dy="4"/>
<feGaussianBlur stdDeviation="3.85"/>
<feComposite in2="hardAlpha" operator="arithmetic" k2="-1" k3="1"/>
<feColorMatrix type="matrix" values="0 0 0 0 1 0 0 0 0 1 0 0 0 0 1 0 0 0 0.56 0"/>
<feBlend mode="normal" in2="shape" result="effect1_innerShadow_1310_2174"/>
</filter>
<clipPath id="clip0_1310_2174">
<rect width="62" height="24" rx="8" fill="white"/>
</clipPath>
</defs>
</svg>