<svg width="50" height="24" viewBox="0 0 50 24" fill="none" xmlns="http://www.w3.org/2000/svg">
<g filter="url(#filter0_i_1310_2174)">
<g clip-path="url(#clip0_1310_2174)">
<rect width="50" height="24" rx="8" fill="#E3E3E3"/>
<path d="M12.8315 14.5V8.53223H16.9844V9.37158H13.7544V11.0371H16.29V11.8765H13.7544V14.5H12.8315ZM17.8018 8.86621C17.8018 8.5498 18.0215 8.33008 18.3379 8.33008C18.6543 8.33008 18.8784 8.5498 18.8784 8.86621C18.8784 9.18262 18.6543 9.40234 18.3379 9.40234C18.0215 9.40234 17.8018 9.18262 17.8018 8.86621ZM18.7729 14.5H17.9028V10.2812H18.7729V14.5ZM21.9414 14.5879C20.7417 14.5879 19.8232 13.665 19.8232 12.3687C19.8232 11.0723 20.7417 10.1934 21.9414 10.1934C22.6577 10.1934 23.1323 10.457 23.4443 10.8569V10.2812H24.3145V14.1704C24.3145 15.4976 23.4136 16.3457 21.9941 16.3457C21.2207 16.3457 20.5044 16.0205 20.021 15.4404L20.5923 14.8735C20.9922 15.3086 21.4448 15.5547 22.0117 15.5547C22.8774 15.5547 23.4443 15.0493 23.4443 14.2803V13.9243C23.1499 14.3066 22.6577 14.5879 21.9414 14.5879ZM22.0469 10.9756C21.2339 10.9756 20.6934 11.5908 20.6934 12.3687C20.6934 13.1465 21.2339 13.8057 22.0469 13.8057C22.8599 13.8057 23.4399 13.1465 23.4399 12.3687C23.4399 11.5908 22.8555 10.9756 22.0469 10.9756ZM25.6372 14.5V10.2812H26.5117V10.813C26.6479 10.5977 27.0479 10.1934 27.7905 10.1934C28.5156 10.1934 29.0254 10.4922 29.2935 10.98C29.5483 10.5669 30.0757 10.1934 30.8008 10.1934C31.9258 10.1934 32.5322 10.9141 32.5322 11.938V14.5H31.6577V12.1226C31.6577 11.4238 31.2842 11.0195 30.6646 11.0195C30.0493 11.0195 29.5439 11.4062 29.522 12.0698V14.5H28.6475V12.1226C28.6475 11.4238 28.2739 11.0195 27.6543 11.0195C27.0259 11.0195 26.5117 11.4238 26.5117 12.1226V14.5H25.6372ZM33.5298 13.3003C33.5298 12.5093 34.2856 11.9644 35.3931 11.9644C35.8984 11.9644 36.2632 12.0698 36.4565 12.1621V11.9336C36.4565 11.4062 36.0303 11.0107 35.3755 11.0107C34.8525 11.0107 34.4175 11.3096 34.167 11.5952L33.6177 11.0503C33.9429 10.6372 34.6196 10.1934 35.3887 10.1934C36.5752 10.1934 37.3267 10.835 37.3267 11.8589V14.5H36.4741V13.9551C36.2148 14.3506 35.7271 14.5879 35.1602 14.5879C34.2461 14.5879 33.5298 14.1265 33.5298 13.3003ZM34.4087 13.2695C34.4087 13.6519 34.791 13.876 35.2876 13.876C35.9731 13.876 36.4565 13.4058 36.4565 12.8301C36.2764 12.7378 35.8721 12.6279 35.415 12.6279C34.8657 12.6279 34.4087 12.8125 34.4087 13.2695Z" fill="#110F0F"/>
<g opacity="0.2">
<path d="M17.1875 8.75C17.8696 8.23841 18.3735 7.52517 18.6277 6.71131C18.8819 5.89744 18.8736 5.02422 18.604 4.21533C18.3344 3.40643 17.8171 2.70288 17.1254 2.20433C16.4337 1.70578 15.6026 1.4375 14.75 1.4375L7.43748 1.4375C6.58483 1.4375 5.7538 1.70578 5.06209 2.20433C4.37039 2.70288 3.85308 3.40643 3.58345 4.21533C3.31382 5.02422 3.30553 5.89744 3.55977 6.71131C3.814 7.52517 4.31786 8.23841 4.99998 8.75C4.48351 9.13705 4.0667 9.64158 3.78406 10.2218C3.50141 10.802 3.36108 11.4412 3.37468 12.0865C3.38828 12.7318 3.55542 13.3645 3.86226 13.9323C4.1691 14.5001 4.6068 14.9866 5.13912 15.3516C4.53364 15.8119 4.05568 16.4192 3.75049 17.1159C3.4453 17.8125 3.32298 18.5756 3.39512 19.3328C3.46726 20.0899 3.73147 20.8162 4.16273 21.4427C4.59399 22.0692 5.17803 22.5753 5.85954 22.913C6.54106 23.2507 7.29749 23.4089 8.05722 23.3726C8.81696 23.3362 9.55484 23.1066 10.201 22.7054C10.8472 22.3041 11.3803 21.7446 11.7497 21.0798C12.1192 20.415 12.3129 19.6669 12.3125 18.9063L12.3125 15.25C12.7393 15.5701 13.2249 15.803 13.7417 15.9354C14.2585 16.0678 14.7964 16.0971 15.3245 16.0217C15.8526 15.9462 16.3607 15.7675 16.8198 15.4957C17.2789 15.2239 17.6799 14.8643 18 14.4375C18.3201 14.0107 18.553 13.525 18.6854 13.0082C18.8178 12.4914 18.8471 11.9536 18.7716 11.4255C18.6962 10.8973 18.5175 10.3892 18.2457 9.93018C17.9738 9.47112 17.6143 9.0701 17.1875 8.75ZM12.3125 3.0625L14.75 3.0625C15.3964 3.0625 16.0164 3.31931 16.4736 3.77643C16.9307 4.23355 17.1875 4.85354 17.1875 5.5C17.1875 6.14647 16.9307 6.76645 16.4736 7.22357C16.0164 7.68069 15.3964 7.9375 14.75 7.9375H12.3125V3.0625ZM14.75 14.4375C14.2679 14.4375 13.7966 14.2945 13.3958 14.0267C12.9949 13.7589 12.6825 13.3782 12.498 12.9328C12.3135 12.4874 12.2653 11.9973 12.3593 11.5245C12.4534 11.0516 12.6855 10.6173 13.0264 10.2764C13.3673 9.93554 13.8016 9.70339 14.2744 9.60934C14.7473 9.51528 15.2374 9.56356 15.6828 9.74804C16.1282 9.93253 16.5088 10.245 16.7767 10.6458C17.0445 11.0466 17.1875 11.5179 17.1875 12C17.1875 12.6465 16.9307 13.2665 16.4736 13.7236C16.0164 14.1807 15.3964 14.4375 14.75 14.4375Z" fill="#110F0F"/>
</g>
</g>
<rect x="0.5" y="0.5" width="49" height="23" rx="7.5" stroke="#110F0F" stroke-opacity="0.05"/>
</g>
<defs>
<filter id="filter0_i_1310_2174" x="0" y="0" width="50" height="28" filterUnits="userSpaceOnUse" color-interpolation-filters="sRGB">
<feFlood flood-opacity="0" result="BackgroundImageFix"/>
<feBlend mode="normal" in="SourceGraphic" in2="BackgroundImageFix" result="shape"/>
<feColorMatrix in="SourceAlpha" type="matrix" values="0 0 0 0 0 0 0 0 0 0 0 0 0 0 0 0 0 0 127 0" result="hardAlpha"/>
<feOffset dy="4"/>
<feGaussianBlur stdDeviation="3.85"/>
<feComposite in2="hardAlpha" operator="arithmetic" k2="-1" k3="1"/>
<feColorMatrix type="matrix" values="0 0 0 0 1 0 0 0 0 1 0 0 0 0 1 0 0 0 0.56 0"/>
<feBlend mode="normal" in2="shape" result="effect1_innerShadow_1310_2174"/>
</filter>
<clipPath id="clip0_1310_2174">
<rect width="50" height="24" rx="8" fill="white"/>
</clipPath>
</defs>
</svg>
