<svg width="66" height="26" viewBox="0 0 66 26" fill="none" xmlns="http://www.w3.org/2000/svg">
<g filter="url(#filter0_i_1310_2201)">
<rect x="1.5" y="1" width="64" height="24" rx="8" fill="#110F0F" fill-opacity="0.05"/>
<rect x="2" y="1.5" width="63" height="23" rx="7.5" stroke="#110F0F" stroke-opacity="0.05"/>
<path d="M15.3726 9.53223V15.5H14.4497V9.53223H15.3726ZM17.6841 9.3125V15.5H16.814V9.3125H17.6841ZM19.8901 9.3125V15.5H19.02V9.3125H19.8901ZM21.1689 11.2812H22.0391V13.6587C22.0391 14.3574 22.4214 14.7617 23.0674 14.7617C23.731 14.7617 24.2539 14.3574 24.2539 13.6587V11.2812H25.124V15.5H24.2495V14.9683C24.1089 15.1836 23.709 15.5879 22.9312 15.5879C21.7798 15.5879 21.1689 14.8672 21.1689 13.8433V11.2812ZM26.1392 14.6123L26.7852 14.0894C27.0225 14.5024 27.4268 14.7881 27.9629 14.7881C28.4155 14.7881 28.7539 14.6079 28.7539 14.3223C28.7539 14.0103 28.4946 13.9136 27.875 13.7729C26.9697 13.5708 26.3237 13.2852 26.3237 12.4502C26.3237 11.6855 27.0225 11.1934 27.8838 11.1934C28.6704 11.1934 29.2725 11.6021 29.5537 12.0635L28.9692 12.5645C28.7407 12.2393 28.3804 11.9888 27.8838 11.9888C27.4663 11.9888 27.1851 12.1646 27.1851 12.437C27.1851 12.7578 27.4971 12.8457 28.1167 12.9951C29.0352 13.2192 29.6328 13.5181 29.6328 14.3223C29.6328 15.0913 28.8594 15.5879 27.9629 15.5879C27.1411 15.5879 26.4644 15.21 26.1392 14.6123ZM30.9028 12.0195H30.1514V11.2812H30.916V9.92773H31.7642V11.2812H33.1045V12.0195H31.7729V14.1289C31.7729 14.5771 32.0322 14.8013 32.4629 14.8013C32.665 14.8013 32.9419 14.7441 33.1484 14.6562L33.2627 15.4033C33.0518 15.5132 32.6782 15.5879 32.3398 15.5879C31.4565 15.5879 30.9028 15.0913 30.9028 14.2344V12.0195ZM34.959 15.5H34.0845V11.2812H34.959V11.8569C35.1963 11.3955 35.5962 11.1934 36.0576 11.1934C36.3872 11.1934 36.6377 11.2988 36.6377 11.2988L36.5454 12.0986C36.4971 12.0811 36.3081 12.002 36.0312 12.002C35.5654 12.002 34.959 12.248 34.959 13.2017V15.5ZM37.0552 14.3003C37.0552 13.5093 37.811 12.9644 38.9185 12.9644C39.4238 12.9644 39.7886 13.0698 39.9819 13.1621V12.9336C39.9819 12.4062 39.5557 12.0107 38.9009 12.0107C38.3779 12.0107 37.9429 12.3096 37.6924 12.5952L37.1431 12.0503C37.4683 11.6372 38.145 11.1934 38.9141 11.1934C40.1006 11.1934 40.8521 11.835 40.8521 12.8589V15.5H39.9995V14.9551C39.7402 15.3506 39.2524 15.5879 38.6855 15.5879C37.7715 15.5879 37.0552 15.1265 37.0552 14.3003ZM37.9341 14.2695C37.9341 14.6519 38.3164 14.876 38.813 14.876C39.4985 14.876 39.9819 14.4058 39.9819 13.8301C39.8018 13.7378 39.3975 13.6279 38.9404 13.6279C38.3911 13.6279 37.9341 13.8125 37.9341 14.2695ZM42.3374 12.0195H41.5859V11.2812H42.3506V9.92773H43.1987V11.2812H44.5391V12.0195H43.2075V14.1289C43.2075 14.5771 43.4668 14.8013 43.8975 14.8013C44.0996 14.8013 44.3765 14.7441 44.583 14.6562L44.6973 15.4033C44.4863 15.5132 44.1128 15.5879 43.7744 15.5879C42.8911 15.5879 42.3374 15.0913 42.3374 14.2344V12.0195ZM47.3428 15.5879C46.0596 15.5879 45.1016 14.6255 45.1016 13.3906C45.1016 12.1558 46.0596 11.1934 47.3428 11.1934C48.626 11.1934 49.584 12.1558 49.584 13.3906C49.584 14.6255 48.626 15.5879 47.3428 15.5879ZM45.9717 13.3906C45.9717 14.1685 46.5474 14.7705 47.3428 14.7705C48.1382 14.7705 48.7139 14.1685 48.7139 13.3906C48.7139 12.6128 48.1382 12.0107 47.3428 12.0107C46.5474 12.0107 45.9717 12.6128 45.9717 13.3906ZM51.4824 15.5H50.6079V11.2812H51.4824V11.8569C51.7197 11.3955 52.1196 11.1934 52.5811 11.1934C52.9106 11.1934 53.1611 11.2988 53.1611 11.2988L53.0688 12.0986C53.0205 12.0811 52.8315 12.002 52.5547 12.002C52.0889 12.002 51.4824 12.248 51.4824 13.2017V15.5Z" fill="#110F0F"/>
<g opacity="0.2">
<path d="M11.2679 11.4291L10.6482 13.4073H12.7098L12.0782 11.4291C11.9525 11.0337 11.8431 10.5993 11.7424 10.2017C11.7194 10.1103 11.6963 10.0189 11.673 9.92761H11.6492C11.608 10.0869 11.5679 10.2569 11.5257 10.4314C11.4455 10.7672 11.3621 11.116 11.2679 11.4291Z" fill="black"/>
<path fill-rule="evenodd" clip-rule="evenodd" d="M7.33414 3.33881C11.0998 2.9214 14.9001 2.9214 18.6658 3.33881C20.7231 3.56848 22.3816 5.18806 22.6232 7.2529C23.0698 11.0713 23.0698 14.9287 22.6232 18.7471C22.3816 20.8119 20.7231 22.4315 18.6669 22.6622C14.9008 23.0798 11.1002 23.0798 7.33414 22.6622C5.27689 22.4315 3.6183 20.8119 3.37672 18.7481C2.93009 14.9294 2.93009 11.0716 3.37672 7.2529C3.6183 5.18806 5.27689 3.56848 7.33414 3.33881ZM17.2596 10.9882V16.7916H15.782V10.9882H17.2596ZM15.6996 9.36756C15.6996 8.91473 16.0322 8.56915 16.5208 8.56915C17.0224 8.56915 17.3311 8.91473 17.3441 9.36756C17.3441 9.80848 17.0213 10.1541 16.51 10.1541C16.0214 10.1541 15.6996 9.80848 15.6996 9.36756ZM13.6857 16.7916L12.9588 14.5156H10.4097L9.71855 16.7916H8.20514L10.7791 8.75981H12.6501L15.2598 16.7916H13.6857Z" fill="black"/>
</g>
</g>
<defs>
<filter id="filter0_i_1310_2201" x="0" y="0" width="65.5" height="30" filterUnits="userSpaceOnUse" color-interpolation-filters="sRGB">
<feFlood flood-opacity="0" result="BackgroundImageFix"/>
<feBlend mode="normal" in="SourceGraphic" in2="BackgroundImageFix" result="shape"/>
<feColorMatrix in="SourceAlpha" type="matrix" values="0 0 0 0 0 0 0 0 0 0 0 0 0 0 0 0 0 0 127 0" result="hardAlpha"/>
<feOffset dy="4"/>
<feGaussianBlur stdDeviation="3.85"/>
<feComposite in2="hardAlpha" operator="arithmetic" k2="-1" k3="1"/>
<feColorMatrix type="matrix" values="0 0 0 0 1 0 0 0 0 1 0 0 0 0 1 0 0 0 0.56 0"/>
<feBlend mode="normal" in2="shape" result="effect1_innerShadow_1310_2201"/>
</filter>
</defs>
</svg>
