<svg width="39" height="24" viewBox="0 0 39 24" fill="none" xmlns="http://www.w3.org/2000/svg">
<g filter="url(#filter0_i_1310_2178)">
<g clip-path="url(#clip0_1310_2178)">
<rect width="39" height="24" rx="8" fill="#E3E3E3"/>
<path d="M13.897 14.5879C13.1411 14.5879 12.5039 14.2451 12.1084 13.6738L12.7148 13.0542C13.0532 13.5024 13.4575 13.7354 13.8926 13.7354C14.6045 13.7354 15.0176 13.2256 15.0176 12.3555V8.53223H15.9404V12.4214C15.9404 13.7793 15.1758 14.5879 13.897 14.5879ZM17.228 8.86621C17.228 8.5498 17.4478 8.33008 17.7642 8.33008C18.0806 8.33008 18.3047 8.5498 18.3047 8.86621C18.3047 9.18262 18.0806 9.40234 17.7642 9.40234C17.4478 9.40234 17.228 9.18262 17.228 8.86621ZM18.1992 14.5H17.3291V10.2812H18.1992V14.5ZM20.4097 14.5H19.5352V10.2812H20.4097V10.8569C20.647 10.3955 21.0469 10.1934 21.5083 10.1934C21.8379 10.1934 22.0884 10.2988 22.0884 10.2988L21.9961 11.0986C21.9478 11.0811 21.7588 11.002 21.4819 11.002C21.0161 11.002 20.4097 11.248 20.4097 12.2017V14.5ZM22.5059 13.3003C22.5059 12.5093 23.2617 11.9644 24.3691 11.9644C24.8745 11.9644 25.2393 12.0698 25.4326 12.1621V11.9336C25.4326 11.4062 25.0063 11.0107 24.3516 11.0107C23.8286 11.0107 23.3936 11.3096 23.1431 11.5952L22.5938 11.0503C22.9189 10.6372 23.5957 10.1934 24.3647 10.1934C25.5513 10.1934 26.3027 10.835 26.3027 11.8589V14.5H25.4502V13.9551C25.1909 14.3506 24.7031 14.5879 24.1362 14.5879C23.2222 14.5879 22.5059 14.1265 22.5059 13.3003ZM23.3848 13.2695C23.3848 13.6519 23.7671 13.876 24.2637 13.876C24.9492 13.876 25.4326 13.4058 25.4326 12.8301C25.2524 12.7378 24.8481 12.6279 24.3911 12.6279C23.8418 12.6279 23.3848 12.8125 23.3848 13.2695Z" fill="#110F0F"/>
<g opacity="0.2">
<path d="M19.5807 1.31604H8.979C8.979 3.87543 11.1238 5.95866 13.7589 5.95866H15.7199V7.77403C15.7199 10.3334 17.8648 12.4167 20.4999 12.4167V2.20885C20.4999 1.70293 20.1016 1.31604 19.5807 1.31604Z" fill="#110F0F"/>
<path d="M14.3412 6.43481H3.7395C3.7395 8.99421 5.88436 11.0774 8.51948 11.0774H10.4805V12.9226C10.4805 15.4819 12.6254 17.5652 15.2605 17.5652V7.32759C15.2605 6.85146 14.8621 6.43481 14.3412 6.43481Z" fill="url(#paint0_linear_1310_2178)"/>
<path d="M9.10174 11.5834H-1.5C-1.5 14.1427 0.644854 16.2259 3.27996 16.2259H5.24098V18.0414C5.24098 20.6007 7.38581 22.6839 10.0209 22.6839V12.4761C10.0209 11.9702 9.59201 11.5834 9.10174 11.5834Z" fill="url(#paint1_linear_1310_2178)"/>
</g>
</g>
<rect x="0.5" y="0.5" width="38" height="23" rx="7.5" stroke="#110F0F" stroke-opacity="0.05"/>
</g>
<defs>
<filter id="filter0_i_1310_2178" x="0" y="0" width="39" height="28" filterUnits="userSpaceOnUse" color-interpolation-filters="sRGB">
<feFlood flood-opacity="0" result="BackgroundImageFix"/>
<feBlend mode="normal" in="SourceGraphic" in2="BackgroundImageFix" result="shape"/>
<feColorMatrix in="SourceAlpha" type="matrix" values="0 0 0 0 0 0 0 0 0 0 0 0 0 0 0 0 0 0 127 0" result="hardAlpha"/>
<feOffset dy="4"/>
<feGaussianBlur stdDeviation="3.85"/>
<feComposite in2="hardAlpha" operator="arithmetic" k2="-1" k3="1"/>
<feColorMatrix type="matrix" values="0 0 0 0 1 0 0 0 0 1 0 0 0 0 1 0 0 0 0.56 0"/>
<feBlend mode="normal" in2="shape" result="effect1_innerShadow_1310_2178"/>
</filter>
<linearGradient id="paint0_linear_1310_2178" x1="15.0349" y1="6.4605" x2="10.6628" y2="11.1026" gradientUnits="userSpaceOnUse">
<stop offset="0.176" stop-color="#504F4F"/>
<stop offset="1" stop-color="#110F0F"/>
</linearGradient>
<linearGradient id="paint1_linear_1310_2178" x1="10.0901" y1="11.6176" x2="5.0263" y2="16.6902" gradientUnits="userSpaceOnUse">
<stop offset="0.1761" stop-color="#504F4F"/>
<stop offset="1" stop-color="#110F0F"/>
</linearGradient>
<clipPath id="clip0_1310_2178">
<rect width="39" height="24" rx="8" fill="white"/>
</clipPath>
</defs>
</svg>
