<svg width="46" height="24" viewBox="0 0 46 24" fill="none" xmlns="http://www.w3.org/2000/svg">
<g filter="url(#filter0_i_1310_2191)">
<rect width="46" height="24" rx="8" fill="#110F0F" fill-opacity="0.05"/>
<rect x="0.5" y="0.5" width="45" height="23" rx="7.5" stroke="#110F0F" stroke-opacity="0.05"/>
<path d="M13.0288 14.5V8.53223H14.123L16.1841 12.7773L18.2495 8.53223H19.3394V14.5H18.4077V10.2241L16.5137 14.0781H15.8545L13.9604 10.2241V14.5H13.0288ZM20.4995 13.3003C20.4995 12.5093 21.2554 11.9644 22.3628 11.9644C22.8682 11.9644 23.2329 12.0698 23.4263 12.1621V11.9336C23.4263 11.4062 23 11.0107 22.3452 11.0107C21.8223 11.0107 21.3872 11.3096 21.1367 11.5952L20.5874 11.0503C20.9126 10.6372 21.5894 10.1934 22.3584 10.1934C23.5449 10.1934 24.2964 10.835 24.2964 11.8589V14.5H23.4438V13.9551C23.1846 14.3506 22.6968 14.5879 22.1299 14.5879C21.2158 14.5879 20.4995 14.1265 20.4995 13.3003ZM21.3784 13.2695C21.3784 13.6519 21.7607 13.876 22.2573 13.876C22.9429 13.876 23.4263 13.4058 23.4263 12.8301C23.2461 12.7378 22.8418 12.6279 22.3848 12.6279C21.8354 12.6279 21.3784 12.8125 21.3784 13.2695ZM25.2764 14.5V13.7749L27.4517 11.0195H25.3203V10.2812H28.4404V11.0063L26.2651 13.7617H28.5767V14.5H25.2764ZM29.1655 12.395C29.1655 11.1382 30.0664 10.1934 31.3452 10.1934C32.5757 10.1934 33.3755 11.1074 33.3755 12.2368C33.3755 12.3687 33.3667 12.5049 33.3403 12.6411H30.0664C30.106 13.2739 30.6465 13.7705 31.376 13.7705C31.9033 13.7705 32.3252 13.5464 32.6416 13.0498L33.2832 13.5156C32.8921 14.2188 32.123 14.5879 31.376 14.5879C30.1016 14.5879 29.1655 13.6475 29.1655 12.395ZM30.0884 11.9907H32.4922C32.4395 11.3975 31.9429 10.98 31.3364 10.98C30.6904 10.98 30.1982 11.3975 30.0884 11.9907Z" fill="#110F0F"/>
<g opacity="0.2">
<g clip-path="url(#clip0_1310_2191)">
<path fill-rule="evenodd" clip-rule="evenodd" d="M2.07907 16.5471C0.640291 15.0589 0.640314 12.6461 2.07912 11.158L5.98696 7.11612C7.20328 5.85811 9.0584 5.66355 10.4723 6.53244C10.9096 6.8012 10.9058 7.41772 10.5461 7.78976C10.1864 8.1618 9.59924 8.12978 9.11099 7.98208C8.48577 7.79295 7.78269 7.95339 7.28959 8.4634L3.38172 12.5053C2.66232 13.2493 2.66231 14.4557 3.3817 15.1998C4.1011 15.9439 5.26751 15.9439 5.98693 15.1998L13.8026 7.11617C15.2414 5.62802 17.5741 5.62802 19.0129 7.11615L22.9209 11.158C24.3597 12.6461 24.3597 15.0589 22.9209 16.5471C21.482 18.0352 19.1493 18.0352 17.7104 16.5471L16.4078 15.1998L14.7796 16.8839C13.5633 18.1419 11.7081 18.3364 10.2942 17.4676C9.8569 17.1988 9.86073 16.5823 10.2204 16.2102C10.5802 15.8382 11.1673 15.8702 11.6556 16.0179C12.2808 16.2071 12.9839 16.0466 13.477 15.5366L15.1517 13.8044C15.8455 13.0869 16.9702 13.0869 17.6639 13.8044L19.0131 15.1998C19.7325 15.9439 20.8988 15.9439 21.6183 15.1998C22.3376 14.4557 22.3376 13.2493 21.6183 12.5053L17.7104 8.46344C16.9909 7.71937 15.8246 7.71938 15.1052 8.46344L7.28955 16.5471C5.85071 18.0353 3.51788 18.0353 2.07907 16.5471Z" fill="#110F0F"/>
</g>
</g>
</g>
<defs>
<filter id="filter0_i_1310_2191" x="0" y="0" width="46" height="28" filterUnits="userSpaceOnUse" color-interpolation-filters="sRGB">
<feFlood flood-opacity="0" result="BackgroundImageFix"/>
<feBlend mode="normal" in="SourceGraphic" in2="BackgroundImageFix" result="shape"/>
<feColorMatrix in="SourceAlpha" type="matrix" values="0 0 0 0 0 0 0 0 0 0 0 0 0 0 0 0 0 0 127 0" result="hardAlpha"/>
<feOffset dy="4"/>
<feGaussianBlur stdDeviation="3.85"/>
<feComposite in2="hardAlpha" operator="arithmetic" k2="-1" k3="1"/>
<feColorMatrix type="matrix" values="0 0 0 0 1 0 0 0 0 1 0 0 0 0 1 0 0 0 0.56 0"/>
<feBlend mode="normal" in2="shape" result="effect1_innerShadow_1310_2191"/>
</filter>
<clipPath id="clip0_1310_2191">
<rect width="23" height="12" fill="white" transform="translate(1 6)"/>
</clipPath>
</defs>
</svg>
