<svg width="53" height="24" viewBox="0 0 53 24" fill="none" xmlns="http://www.w3.org/2000/svg">
<g filter="url(#filter0_i_1310_2196)">
<rect width="53" height="24" rx="8" fill="#E3E3E3"/>
<rect x="0.5" y="0.5" width="52" height="23" rx="7.5" stroke="#110F0F" stroke-opacity="0.05"/>
<g opacity="0.2" clip-path="url(#clip0_1310_2196)">
<path d="M2.7034 2.86247L13.77 2.04507C15.1294 1.92847 15.4786 2.00707 16.3334 2.62847L19.866 5.11707C20.4486 5.54507 20.6426 5.66167 20.6426 6.12767V19.7763C20.6426 20.6317 20.332 21.1377 19.2446 21.2149L6.3934 21.9933C5.5774 22.0319 5.1888 21.9153 4.7614 21.3707L2.16 17.9879C1.6934 17.3653 1.5 16.8993 1.5 16.3545V4.22247C1.5 3.52307 1.8106 2.93987 2.7034 2.86247Z" fill="#DAD9D9"/>
<path fill-rule="evenodd" clip-rule="evenodd" d="M13.77 2.04527L2.7034 2.86267C1.8106 2.93987 1.5 3.52327 1.5 4.22247V16.3545C1.5 16.8991 1.6934 17.3651 2.16 17.9879L4.7614 21.3705C5.1888 21.9151 5.5774 22.0319 6.3934 21.9931L19.2448 21.2151C20.3314 21.1377 20.6428 20.6317 20.6428 19.7765V6.12787C20.6428 5.68587 20.4682 5.55847 19.9542 5.18127L16.3334 2.62847C15.4788 2.00707 15.1294 1.92847 13.77 2.04507V2.04527ZM6.684 5.90447C5.6346 5.97507 5.3966 5.99107 4.8006 5.50647L3.2854 4.30127C3.1314 4.14527 3.2088 3.95067 3.5968 3.91187L14.2354 3.13447C15.1288 3.05647 15.594 3.36787 15.9434 3.63987L17.768 4.96187C17.846 5.00127 18.04 5.23387 17.8066 5.23387L6.82 5.89527L6.684 5.90447ZM5.4606 19.6599V8.07327C5.4606 7.56727 5.616 7.33387 6.0812 7.29467L18.7 6.55587C19.128 6.51727 19.3214 6.78927 19.3214 7.29447V18.8039C19.3214 19.3099 19.2434 19.7379 18.5448 19.7765L6.4694 20.4765C5.7708 20.5151 5.4608 20.2825 5.4608 19.6599H5.4606ZM17.3806 8.69447C17.458 9.04447 17.3806 9.39447 17.0306 9.43447L16.4486 9.54987V18.1045C15.9432 18.3765 15.478 18.5319 15.0892 18.5319C14.4678 18.5319 14.3126 18.3373 13.8472 17.7545L10.0412 11.7665V17.5599L11.2452 17.8325C11.2452 17.8325 11.2452 18.5325 10.2738 18.5325L7.5958 18.6879C7.5178 18.5319 7.5958 18.1433 7.8672 18.0659L8.5666 17.8719V10.2119L7.596 10.1333C7.518 9.78327 7.712 9.27787 8.256 9.23867L11.1294 9.04527L15.0894 15.1107V9.74467L14.08 9.62867C14.002 9.20007 14.3126 8.88867 14.7006 8.85067L17.3806 8.69447Z" fill="#110F0F"/>
</g>
<path d="M14.0898 14.5H13.167V8.53223H14.0898L17.7241 13.0806V8.53223H18.647V14.5H17.7153L14.0898 9.99561V14.5ZM22.022 14.5879C20.7388 14.5879 19.7808 13.6255 19.7808 12.3906C19.7808 11.1558 20.7388 10.1934 22.022 10.1934C23.3052 10.1934 24.2632 11.1558 24.2632 12.3906C24.2632 13.6255 23.3052 14.5879 22.022 14.5879ZM20.6509 12.3906C20.6509 13.1685 21.2266 13.7705 22.022 13.7705C22.8174 13.7705 23.3931 13.1685 23.3931 12.3906C23.3931 11.6128 22.8174 11.0107 22.022 11.0107C21.2266 11.0107 20.6509 11.6128 20.6509 12.3906ZM25.4717 11.0195H24.7202V10.2812H25.4849V8.92773H26.333V10.2812H27.6733V11.0195H26.3418V13.1289C26.3418 13.5771 26.6011 13.8013 27.0317 13.8013C27.2339 13.8013 27.5107 13.7441 27.7173 13.6562L27.8315 14.4033C27.6206 14.5132 27.2471 14.5879 26.9087 14.5879C26.0254 14.5879 25.4717 14.0913 25.4717 13.2344V11.0195ZM28.5522 8.86621C28.5522 8.5498 28.772 8.33008 29.0884 8.33008C29.4048 8.33008 29.6289 8.5498 29.6289 8.86621C29.6289 9.18262 29.4048 9.40234 29.0884 9.40234C28.772 9.40234 28.5522 9.18262 28.5522 8.86621ZM29.5234 14.5H28.6533V10.2812H29.5234V14.5ZM32.7886 14.5879C31.5054 14.5879 30.5474 13.6255 30.5474 12.3906C30.5474 11.1558 31.5054 10.1934 32.7886 10.1934C34.0718 10.1934 35.0298 11.1558 35.0298 12.3906C35.0298 13.6255 34.0718 14.5879 32.7886 14.5879ZM31.4175 12.3906C31.4175 13.1685 31.9932 13.7705 32.7886 13.7705C33.584 13.7705 34.1597 13.1685 34.1597 12.3906C34.1597 11.6128 33.584 11.0107 32.7886 11.0107C31.9932 11.0107 31.4175 11.6128 31.4175 12.3906ZM36.9238 14.5H36.0537V10.2812H36.9282V10.813C37.0688 10.5977 37.4688 10.1934 38.2246 10.1934C39.3848 10.1934 39.9956 10.9141 39.9956 11.938V14.5H39.1255V12.1226C39.1255 11.4238 38.7432 11.0195 38.0884 11.0195C37.4468 11.0195 36.9238 11.4238 36.9238 12.1226V14.5Z" fill="#110F0F"/>
</g>
<defs>
<filter id="filter0_i_1310_2196" x="0" y="0" width="53" height="28" filterUnits="userSpaceOnUse" color-interpolation-filters="sRGB">
<feFlood flood-opacity="0" result="BackgroundImageFix"/>
<feBlend mode="normal" in="SourceGraphic" in2="BackgroundImageFix" result="shape"/>
<feColorMatrix in="SourceAlpha" type="matrix" values="0 0 0 0 0 0 0 0 0 0 0 0 0 0 0 0 0 0 127 0" result="hardAlpha"/>
<feOffset dy="4"/>
<feGaussianBlur stdDeviation="3.85"/>
<feComposite in2="hardAlpha" operator="arithmetic" k2="-1" k3="1"/>
<feColorMatrix type="matrix" values="0 0 0 0 1 0 0 0 0 1 0 0 0 0 1 0 0 0 0.56 0"/>
<feBlend mode="normal" in2="shape" result="effect1_innerShadow_1310_2196"/>
</filter>
<clipPath id="clip0_1310_2196">
<rect width="20" height="20" fill="white" transform="translate(1.5 2)"/>
</clipPath>
</defs>
</svg>
