<svg width="53" height="24" viewBox="0 0 53 24" fill="none" xmlns="http://www.w3.org/2000/svg">
<g filter="url(#filter0_i_1310_2174)">
<g clip-path="url(#clip0_1310_2174)">
<rect width="53" height="24" rx="8" fill="#E3E3E3"/>
<g opacity="0.2">
<path d="M4 6.5C4 5.67157 4.67157 5 5.5 5H11.5C12.3284 5 13 5.67157 13 6.5V17.5C13 18.3284 12.3284 19 11.5 19H5.5C4.67157 19 4 18.3284 4 17.5V6.5Z" fill="#110F0F"/>
<path d="M6 8H11V17H6V8Z" fill="#E3E3E3"/>
<path d="M7.5 7.5L9.5 7.5" stroke="#110F0F" stroke-width="0.5" stroke-linecap="round"/>
<path d="M10.5 6L11.5 5L12.5 6L11.5 7L10.5 6Z" fill="#110F0F"/>
<path d="M11 6.5L12 5.5" stroke="#110F0F" stroke-width="0.8" stroke-linecap="round" stroke-linejoin="round"/>
<path d="M11.5 5.5L12.5 6.5L11 8L9.5 6.5L11.5 5.5Z" fill="#110F0F"/>
</g>
<path d="M20.2188 14.5H19.2969V8.53223H20.2188L23.853 13.0806V8.53223H24.7759V14.5H23.8442L20.2188 9.99561V14.5ZM27.4736 14.5879C26.1904 14.5879 25.2324 13.6255 25.2324 12.3906C25.2324 11.1558 26.1904 10.1934 27.4736 10.1934C28.7568 10.1934 29.7148 11.1558 29.7148 12.3906C29.7148 13.6255 28.7568 14.5879 27.4736 14.5879ZM26.1025 12.3906C26.1025 13.1685 26.6782 13.7705 27.4736 13.7705C28.269 13.7705 28.8447 13.1685 28.8447 12.3906C28.8447 11.6128 28.269 11.0107 27.4736 11.0107C26.6782 11.0107 26.1025 11.6128 26.1025 12.3906ZM32.2939 14.5879C31.0107 14.5879 30.0527 13.6255 30.0527 12.3906C30.0527 11.1558 31.0107 10.1934 32.2939 10.1934C33.5771 10.1934 34.5352 11.1558 34.5352 12.3906C34.5352 13.6255 33.5771 14.5879 32.2939 14.5879ZM30.9229 12.3906C30.9229 13.1685 31.4985 13.7705 32.2939 13.7705C33.0894 13.7705 33.665 13.1685 33.665 12.3906C33.665 11.6128 33.0894 11.0107 32.2939 11.0107C31.4985 11.0107 30.9229 11.6128 30.9229 12.3906ZM35.4688 11.0195H34.7173V10.2812H35.482V8.92773H36.3301V10.2812H37.6704V11.0195H36.3389V13.1289C36.3389 13.5771 36.5981 13.8013 37.0288 13.8013C37.231 13.8013 37.5078 13.7441 37.7144 13.6562L37.8286 14.4033C37.6177 14.5132 37.2441 14.5879 36.9058 14.5879C36.0225 14.5879 35.4688 14.0913 35.4688 13.2344V11.0195ZM38.4673 8.86621C38.4673 8.5498 38.687 8.33008 39.0034 8.33008C39.3198 8.33008 39.5439 8.5498 39.5439 8.86621C39.5439 9.18262 39.3198 9.40234 39.0034 9.40234C38.687 9.40234 38.4673 9.18262 38.4673 8.86621ZM39.4385 14.5H38.5684V10.2812H39.4385V14.5ZM42.7266 14.5879C41.4434 14.5879 40.4854 13.6255 40.4854 12.3906C40.4854 11.1558 41.4434 10.1934 42.7266 10.1934C44.0098 10.1934 44.9678 11.1558 44.9678 12.3906C44.9678 13.6255 44.0098 14.5879 42.7266 14.5879ZM41.3555 12.3906C41.3555 13.1685 41.9312 13.7705 42.7266 13.7705C43.522 13.7705 44.0977 13.1685 44.0977 12.3906C44.0977 11.6128 43.522 11.0107 42.7266 11.0107C41.9312 11.0107 41.3555 11.6128 41.3555 12.3906Z" fill="#110F0F"/>
</g>
<rect x="0.5" y="0.5" width="52" height="23" rx="7.5" stroke="#110F0F" stroke-opacity="0.05"/>
</g>
<defs>
<filter id="filter0_i_1310_2174" x="0" y="0" width="53" height="28" filterUnits="userSpaceOnUse" color-interpolation-filters="sRGB">
<feFlood flood-opacity="0" result="BackgroundImageFix"/>
<feBlend mode="normal" in="SourceGraphic" in2="BackgroundImageFix" result="shape"/>
<feColorMatrix in="SourceAlpha" type="matrix" values="0 0 0 0 0 0 0 0 0 0 0 0 0 0 0 0 0 0 127 0" result="hardAlpha"/>
<feOffset dy="4"/>
<feGaussianBlur stdDeviation="3.85"/>
<feComposite in2="hardAlpha" operator="arithmetic" k2="-1" k3="1"/>
<feColorMatrix type="matrix" values="0 0 0 0 1 0 0 0 0 1 0 0 0 0 1 0 0 0 0.56 0"/>
<feBlend mode="normal" in2="shape" result="effect1_innerShadow_1310_2174"/>
</filter>
<clipPath id="clip0_1310_2174">
<rect width="53" height="24" rx="8" fill="white"/>
</clipPath>
</defs>
</svg>