<svg width="70" height="25" viewBox="0 0 70 25" fill="none" xmlns="http://www.w3.org/2000/svg">
<g filter="url(#filter0_i_1310_2206)">
<rect x="0.5" y="1" width="69" height="24" rx="8" fill="#110F0F" fill-opacity="0.05"/>
<rect x="1" y="1.5" width="68" height="23" rx="7.5" stroke="#110F0F" stroke-opacity="0.05"/>
<g opacity="0.2">
<path d="M10.2934 9.93677C9.8865 9.93677 9.5993 9.97261 9.44482 10.0084V12.7323C9.62324 12.7801 9.86257 12.792 10.1628 12.792C11.2627 12.792 11.9328 12.2544 11.9328 11.3106C11.9328 10.4146 11.3105 9.93677 10.2934 9.93677Z" fill="black"/>
<path fill-rule="evenodd" clip-rule="evenodd" d="M6.91441 3.43885C10.6959 3.02038 14.5121 3.02038 18.2936 3.43885C20.3595 3.66909 22.0251 5.29277 22.2677 7.36281C22.7161 11.1908 22.7161 15.058 22.2677 18.886C22.0251 20.9561 20.3595 22.5797 18.2947 22.8111C14.5129 23.2296 10.6963 23.2296 6.91441 22.8111C4.84852 22.5797 3.18298 20.9561 2.94038 18.8871C2.49188 15.0587 2.49188 11.1912 2.94038 7.36281C3.18298 5.29277 4.84852 3.66909 6.91441 3.43885ZM9.44373 16.9257H7.9838V8.98106C8.51033 8.88548 9.2403 8.8138 10.2335 8.8138C11.3105 8.8138 12.1003 9.04079 12.616 9.47088C13.0947 9.86512 13.4047 10.4983 13.4047 11.2509C13.4047 12.0155 13.1654 12.6487 12.7106 13.0788C12.1243 13.6642 11.2028 13.939 10.1617 13.939C9.8865 13.939 9.6352 13.927 9.44373 13.8912V16.9257ZM15.2857 17.0571C14.5785 17.0571 13.9454 16.8779 13.5146 16.6389L13.8018 15.5757C14.1369 15.7788 14.77 15.9938 15.2976 15.9938C15.9438 15.9938 16.231 15.731 16.231 15.3487C16.231 14.9544 15.9917 14.7513 15.2737 14.5005C14.1369 14.1062 13.6582 13.485 13.6702 12.804C13.6702 11.7766 14.5187 10.9762 15.872 10.9762C16.5182 10.9762 17.0796 11.1434 17.4157 11.3226L17.1285 12.362C16.7516 12.1506 16.3282 12.0357 15.896 12.0275C15.3694 12.0275 15.0822 12.2784 15.0822 12.6368C15.0822 13.0071 15.3575 13.1863 16.0994 13.4491C17.1525 13.8314 17.6431 14.369 17.6551 15.2292C17.6551 16.2805 16.8283 17.0571 15.2857 17.0571Z" fill="black"/>
</g>
<path d="M14.4468 15.5H13.5239V9.53662H15.9761C17.2065 9.53662 18.002 10.2969 18.002 11.4043C18.002 12.4985 17.2065 13.2764 15.9761 13.2764H14.4468V15.5ZM14.4468 10.376V12.4326H15.9365C16.6616 12.4326 17.0396 11.9756 17.0396 11.4043C17.0396 10.8242 16.6616 10.376 15.9365 10.376H14.4468ZM19.7817 15.5H18.9116V9.3125H19.7861V11.813C19.9268 11.5977 20.3267 11.1934 21.0825 11.1934C22.2207 11.1934 22.8315 11.9141 22.8315 12.938V15.5H21.9614V13.1226C21.9614 12.4238 21.5791 12.0195 20.9463 12.0195C20.3047 12.0195 19.7817 12.4238 19.7817 13.1226V15.5ZM26.0439 15.5879C24.7607 15.5879 23.8027 14.6255 23.8027 13.3906C23.8027 12.1558 24.7607 11.1934 26.0439 11.1934C27.3271 11.1934 28.2852 12.1558 28.2852 13.3906C28.2852 14.6255 27.3271 15.5879 26.0439 15.5879ZM24.6729 13.3906C24.6729 14.1685 25.2485 14.7705 26.0439 14.7705C26.8394 14.7705 27.415 14.1685 27.415 13.3906C27.415 12.6128 26.8394 12.0107 26.0439 12.0107C25.2485 12.0107 24.6729 12.6128 24.6729 13.3906ZM29.4937 12.0195H28.7422V11.2812H29.5068V9.92773H30.355V11.2812H31.6953V12.0195H30.3638V14.1289C30.3638 14.5771 30.623 14.8013 31.0537 14.8013C31.2559 14.8013 31.5327 14.7441 31.7393 14.6562L31.8535 15.4033C31.6426 15.5132 31.269 15.5879 30.9307 15.5879C30.0474 15.5879 29.4937 15.0913 29.4937 14.2344V12.0195ZM34.499 15.5879C33.2158 15.5879 32.2578 14.6255 32.2578 13.3906C32.2578 12.1558 33.2158 11.1934 34.499 11.1934C35.7822 11.1934 36.7402 12.1558 36.7402 13.3906C36.7402 14.6255 35.7822 15.5879 34.499 15.5879ZM33.1279 13.3906C33.1279 14.1685 33.7036 14.7705 34.499 14.7705C35.2944 14.7705 35.8701 14.1685 35.8701 13.3906C35.8701 12.6128 35.2944 12.0107 34.499 12.0107C33.7036 12.0107 33.1279 12.6128 33.1279 13.3906ZM37.439 14.6123L38.085 14.0894C38.3223 14.5024 38.7266 14.7881 39.2627 14.7881C39.7153 14.7881 40.0537 14.6079 40.0537 14.3223C40.0537 14.0103 39.7944 13.9136 39.1748 13.7729C38.2695 13.5708 37.6235 13.2852 37.6235 12.4502C37.6235 11.6855 38.3223 11.1934 39.1836 11.1934C39.9702 11.1934 40.5723 11.6021 40.8535 12.0635L40.269 12.5645C40.0405 12.2393 39.6802 11.9888 39.1836 11.9888C38.7661 11.9888 38.4849 12.1646 38.4849 12.437C38.4849 12.7578 38.7969 12.8457 39.4165 12.9951C40.335 13.2192 40.9326 13.5181 40.9326 14.3223C40.9326 15.0913 40.1592 15.5879 39.2627 15.5879C38.4409 15.5879 37.7642 15.21 37.439 14.6123ZM42.8618 15.5H41.9917V9.3125H42.8662V11.813C43.0068 11.5977 43.4067 11.1934 44.1626 11.1934C45.3008 11.1934 45.9116 11.9141 45.9116 12.938V15.5H45.0415V13.1226C45.0415 12.4238 44.6592 12.0195 44.0264 12.0195C43.3848 12.0195 42.8618 12.4238 42.8618 13.1226V15.5ZM49.124 15.5879C47.8408 15.5879 46.8828 14.6255 46.8828 13.3906C46.8828 12.1558 47.8408 11.1934 49.124 11.1934C50.4072 11.1934 51.3652 12.1558 51.3652 13.3906C51.3652 14.6255 50.4072 15.5879 49.124 15.5879ZM47.7529 13.3906C47.7529 14.1685 48.3286 14.7705 49.124 14.7705C49.9194 14.7705 50.4951 14.1685 50.4951 13.3906C50.4951 12.6128 49.9194 12.0107 49.124 12.0107C48.3286 12.0107 47.7529 12.6128 47.7529 13.3906ZM52.3892 17.2578V11.2812H53.2593V11.8569C53.5713 11.457 54.0459 11.1934 54.7622 11.1934C55.9619 11.1934 56.8804 12.1162 56.8804 13.4126C56.8804 14.709 55.9619 15.5879 54.7622 15.5879C54.0459 15.5879 53.5713 15.3242 53.2593 14.9243V17.2578H52.3892ZM53.2637 13.4126C53.2637 14.1904 53.8481 14.8057 54.6567 14.8057C55.4697 14.8057 56.0103 14.1904 56.0103 13.4126C56.0103 12.6348 55.4697 11.9756 54.6567 11.9756C53.8438 11.9756 53.2637 12.6348 53.2637 13.4126Z" fill="#110F0F"/>
</g>
<defs>
<filter id="filter0_i_1310_2206" x="0" y="0" width="69.5" height="29" filterUnits="userSpaceOnUse" color-interpolation-filters="sRGB">
<feFlood flood-opacity="0" result="BackgroundImageFix"/>
<feBlend mode="normal" in="SourceGraphic" in2="BackgroundImageFix" result="shape"/>
<feColorMatrix in="SourceAlpha" type="matrix" values="0 0 0 0 0 0 0 0 0 0 0 0 0 0 0 0 0 0 127 0" result="hardAlpha"/>
<feOffset dy="4"/>
<feGaussianBlur stdDeviation="3.85"/>
<feComposite in2="hardAlpha" operator="arithmetic" k2="-1" k3="1"/>
<feColorMatrix type="matrix" values="0 0 0 0 1 0 0 0 0 1 0 0 0 0 1 0 0 0 0.56 0"/>
<feBlend mode="normal" in2="shape" result="effect1_innerShadow_1310_2206"/>
</filter>
</defs>
</svg>
