<svg width="61" height="24" viewBox="0 0 61 24" fill="none" xmlns="http://www.w3.org/2000/svg">
<g filter="url(#filter0_i_1310_2185)">
<rect width="61" height="24" rx="8" fill="#E3E3E3"/>
<rect x="0.5" y="0.5" width="60" height="23" rx="7.5" stroke="#110F0F" stroke-opacity="0.05"/>
<g opacity="0.2">
<path d="M17.0999 2.40002H6.8999C4.41462 2.40002 2.3999 4.41474 2.3999 6.90002V17.1C2.3999 19.5853 4.41462 21.6 6.8999 21.6H17.0999C19.5852 21.6 21.5999 19.5853 21.5999 17.1V6.90002C21.5999 4.41474 19.5852 2.40002 17.0999 2.40002Z" fill="#110F0F"/>
<path d="M15.0829 10.1578C15.0829 10.1578 14.0468 13.4039 13.9702 13.6795C13.9396 13.409 13.1842 7.57507 13.1842 7.57507C11.4182 7.57507 10.479 8.83065 9.97875 10.1578C9.97875 10.1578 8.71807 13.4141 8.616 13.6846C8.6109 13.4294 8.42205 10.1884 8.42205 10.1884C8.3148 8.56012 6.8295 7.57507 5.625 7.57507L7.0746 16.4102C8.92222 16.4051 9.91755 15.1546 10.4381 13.8225C10.4381 13.8225 11.5457 10.9489 11.5917 10.8213C11.6019 10.9438 12.3879 16.4102 12.3879 16.4102C14.2407 16.4102 15.2411 15.2414 15.777 13.9603L18.375 7.57507C16.5426 7.57507 15.578 8.82555 15.0829 10.1578Z" fill="#DAD9D9"/>
</g>
<path d="M12.2891 8.53223H13.2119L14.6973 13.6694L16.1431 8.62891H17.1318L18.5776 13.6694L20.0586 8.53223H20.9858L19.3247 14.5H17.835L16.6353 10.0791L15.4399 14.5H13.9502L12.2891 8.53223ZM21.2275 12.395C21.2275 11.1382 22.1284 10.1934 23.4072 10.1934C24.6377 10.1934 25.4375 11.1074 25.4375 12.2368C25.4375 12.3687 25.4287 12.5049 25.4023 12.6411H22.1284C22.168 13.2739 22.7085 13.7705 23.438 13.7705C23.9653 13.7705 24.3872 13.5464 24.7036 13.0498L25.3452 13.5156C24.9541 14.2188 24.1851 14.5879 23.438 14.5879C22.1636 14.5879 21.2275 13.6475 21.2275 12.395ZM22.1504 11.9907H24.5542C24.5015 11.3975 24.0049 10.98 23.3984 10.98C22.7524 10.98 22.2603 11.3975 22.1504 11.9907ZM26.4746 14.5V8.3125H27.3447V10.8569C27.6567 10.457 28.1313 10.1934 28.8477 10.1934C30.0474 10.1934 30.9658 11.0723 30.9658 12.3687C30.9658 13.665 30.0474 14.5879 28.8477 14.5879C28.1313 14.5879 27.6567 14.3242 27.3447 13.9243V14.5H26.4746ZM27.3491 12.3687C27.3491 13.1465 27.9292 13.8057 28.7422 13.8057C29.5552 13.8057 30.0957 13.1465 30.0957 12.3687C30.0957 11.5908 29.5552 10.9756 28.7422 10.9756C27.9336 10.9756 27.3491 11.5908 27.3491 12.3687ZM32.3193 11.0195H31.5239V10.2812H32.3325V9.82422C32.3325 8.84863 32.939 8.22461 33.9673 8.22461C34.3408 8.22461 34.5913 8.33887 34.666 8.37842L34.5737 9.09912C34.4551 9.04639 34.2266 8.98926 34.0068 8.98926C33.4399 8.98926 33.1763 9.26172 33.1763 9.87256V10.2812H34.4199V11.0195H33.1895V14.5H32.3193V11.0195ZM35.2197 8.3125H36.0898V14.5H35.2197V8.3125ZM39.355 14.5879C38.0718 14.5879 37.1138 13.6255 37.1138 12.3906C37.1138 11.1558 38.0718 10.1934 39.355 10.1934C40.6382 10.1934 41.5962 11.1558 41.5962 12.3906C41.5962 13.6255 40.6382 14.5879 39.355 14.5879ZM37.9839 12.3906C37.9839 13.1685 38.5596 13.7705 39.355 13.7705C40.1504 13.7705 40.7261 13.1685 40.7261 12.3906C40.7261 11.6128 40.1504 11.0107 39.355 11.0107C38.5596 11.0107 37.9839 11.6128 37.9839 12.3906ZM43.332 14.5L42.0884 10.2812H43.0068L43.9341 13.6475L44.9185 10.3252H45.8413L46.8257 13.6475L47.7529 10.2812H48.6714L47.4277 14.5H46.2412L45.3799 11.4985L44.5186 14.5H43.332Z" fill="#110F0F"/>
</g>
<defs>
<filter id="filter0_i_1310_2185" x="0" y="0" width="61" height="28" filterUnits="userSpaceOnUse" color-interpolation-filters="sRGB">
<feFlood flood-opacity="0" result="BackgroundImageFix"/>
<feBlend mode="normal" in="SourceGraphic" in2="BackgroundImageFix" result="shape"/>
<feColorMatrix in="SourceAlpha" type="matrix" values="0 0 0 0 0 0 0 0 0 0 0 0 0 0 0 0 0 0 127 0" result="hardAlpha"/>
<feOffset dy="4"/>
<feGaussianBlur stdDeviation="3.85"/>
<feComposite in2="hardAlpha" operator="arithmetic" k2="-1" k3="1"/>
<feColorMatrix type="matrix" values="0 0 0 0 1 0 0 0 0 1 0 0 0 0 1 0 0 0 0.56 0"/>
<feBlend mode="normal" in2="shape" result="effect1_innerShadow_1310_2185"/>
</filter>
</defs>
</svg>
